<svg width="29" height="17" viewBox="0 0 29 17" fill="none" xmlns="http://www.w3.org/2000/svg">
<g id="backward.fill 1" clip-path="url(#clip0_30_176)">
<g id="Group">
<path id="Vector" d="M13.163 16.6818C13.9765 16.6818 14.6649 16.056 14.6649 14.8983V2.08064C14.6649 0.922974 13.9765 0.297211 13.163 0.297211C12.7354 0.297211 12.3913 0.432793 11.9636 0.683098L1.33611 6.94074C0.595627 7.37876 0.282745 7.88979 0.282745 8.48427C0.282745 9.08917 0.595627 9.60019 1.33611 10.0382L11.9636 16.2959C12.3808 16.5462 12.7354 16.6818 13.163 16.6818ZM27.493 16.6818C28.3065 16.6818 28.9948 16.056 28.9948 14.8983V2.08064C28.9948 0.922974 28.3065 0.297211 27.493 0.297211C27.0653 0.297211 26.7212 0.432793 26.2936 0.683098L15.6661 6.94074C14.9256 7.37876 14.6127 7.88979 14.6127 8.48427C14.6127 9.08917 14.9256 9.60019 15.6661 10.0382L26.2936 16.2959C26.7108 16.5462 27.0653 16.6818 27.493 16.6818Z" fill="white" fill-opacity="0.85"/>
</g>
</g>
<defs>
<clipPath id="clip0_30_176">
<rect width="28.712" height="16.4054" fill="white" transform="translate(0.282745 0.276352)"/>
</clipPath>
</defs>
</svg>
