<svg width="29" height="17" viewBox="0 0 29 17" fill="none" xmlns="http://www.w3.org/2000/svg">
<g id="Group">
<path id="Vector" d="M16.0732 0.276339C15.2597 0.276339 14.5713 0.902114 14.5713 2.05979L14.5713 14.8775C14.5713 16.0351 15.2597 16.6609 16.0732 16.6609C16.5008 16.6609 16.8449 16.5253 17.2725 16.275L27.9001 10.0174C28.6405 9.57935 28.9534 9.06833 28.9534 8.47384C28.9534 7.86895 28.6405 7.35792 27.9001 6.9199L17.2725 0.662248C16.8554 0.411917 16.5008 0.276339 16.0732 0.276339ZM1.74322 0.276339C0.929695 0.276339 0.24139 0.902114 0.24139 2.05979L0.24139 14.8775C0.24139 16.0351 0.929695 16.6609 1.74322 16.6609C2.17083 16.6609 2.51499 16.5253 2.9426 16.275L13.5701 10.0174C14.3106 9.57935 14.6235 9.06833 14.6235 8.47384C14.6235 7.86895 14.3106 7.35792 13.5701 6.9199L2.9426 0.662248C2.5254 0.411917 2.17083 0.276339 1.74322 0.276339Z" fill="white" fill-opacity="0.85"/>
</g>
</svg>
