<svg width="19" height="10" viewBox="0 0 19 10" fill="none" xmlns="http://www.w3.org/2000/svg">
<g id="Group 13">
<rect id="Rectangle 9" x="5.48963" y="0.693726" width="8.68308" height="8.68308" rx="1.19634" fill="white"/>
<path id="Rectangle 10" d="M16.4882 1.33228C16.4882 1.07871 16.1924 0.940185 15.9976 1.10252L14.8592 2.05123C14.791 2.10805 14.7516 2.19223 14.7516 2.28099V7.78954C14.7516 7.8783 14.791 7.96248 14.8592 8.0193L15.9976 8.96801C16.1924 9.13034 16.4882 8.99182 16.4882 8.73825V1.33228Z" fill="white"/>
<path id="Rectangle 12" d="M18.8037 1.99465C18.8037 1.7282 18.4815 1.59475 18.2931 1.78317L17.1547 2.92161C17.0986 2.9777 17.0671 3.05378 17.0671 3.1331V6.93743C17.0671 7.01675 17.0986 7.09283 17.1547 7.14892L18.2931 8.28736C18.4815 8.47578 18.8037 8.34234 18.8037 8.07588V1.99465Z" fill="white"/>
<path id="Rectangle 13" d="M0.85865 8.07588C0.85865 8.34233 1.18081 8.47577 1.36922 8.28736L2.50767 7.14891C2.56376 7.09282 2.59527 7.01675 2.59527 6.93743L2.59527 3.13309C2.59527 3.05377 2.56376 2.9777 2.50767 2.92161L1.36922 1.78316C1.18081 1.59475 0.85865 1.72819 0.85865 1.99465L0.85865 8.07588Z" fill="white"/>
<path id="Rectangle 11" d="M3.17414 8.73824C3.17414 8.99182 3.46989 9.13034 3.66469 8.96801L4.80314 8.0193C4.87133 7.96248 4.91076 7.8783 4.91076 7.78954L4.91076 2.28099C4.91076 2.19222 4.87133 2.10805 4.80314 2.05122L3.66469 1.10252C3.46989 0.940182 3.17414 1.0787 3.17414 1.33228L3.17414 8.73824Z" fill="white"/>
</g>
</svg>
