<svg width="17" height="23" viewBox="0 0 17 23" fill="none" xmlns="http://www.w3.org/2000/svg">
<g id="pause.fill 1" clip-path="url(#clip0_30_171)">
<g id="Group">
<path id="Vector" d="M2.31257 22.2461H5.32653C6.4766 22.2461 7.08469 21.638 7.08469 20.4747V2.4702C7.08469 1.26726 6.4766 0.712051 5.32653 0.712051H2.31257C1.1625 0.712051 0.554413 1.32013 0.554413 2.4702V20.4747C0.554413 21.638 1.1625 22.2461 2.31257 22.2461ZM11.9229 22.2461H14.9237C16.0869 22.2461 16.6818 21.638 16.6818 20.4747V2.4702C16.6818 1.26726 16.0869 0.712051 14.9237 0.712051H11.9229C10.7596 0.712051 10.1515 1.32013 10.1515 2.4702V20.4747C10.1515 21.638 10.7596 22.2461 11.9229 22.2461Z" fill="white" fill-opacity="0.85"/>
</g>
</g>
<defs>
<clipPath id="clip0_30_171">
<rect width="16.1274" height="21.534" fill="white" transform="translate(0.554413 0.712051)"/>
</clipPath>
</defs>
</svg>
