<svg width="15" height="4" viewBox="0 0 15 4" fill="none" xmlns="http://www.w3.org/2000/svg">
<g id="ellipsis 1" clip-path="url(#clip0_30_185)">
<g id="Group">
<path id="Vector" d="M1.68206 3.33496C2.54221 3.33496 3.22728 2.65751 3.22728 1.81259C3.22728 0.967665 2.54221 0.290207 1.68206 0.290207C0.844753 0.290207 0.159683 0.967665 0.159683 1.81259C0.159683 2.65751 0.844753 3.33496 1.68206 3.33496ZM7.33771 3.33496C8.18261 3.33496 8.86007 2.65751 8.86007 1.81259C8.86007 0.967665 8.18261 0.290207 7.33771 0.290207C6.50038 0.290207 5.82291 0.967665 5.82291 1.81259C5.82291 2.65751 6.50038 3.33496 7.33771 3.33496ZM12.9933 3.33496C13.8383 3.33496 14.5157 2.65751 14.5157 1.81259C14.5157 0.967665 13.8383 0.290207 12.9933 0.290207C12.1332 0.290207 11.4557 0.967665 11.4557 1.81259C11.4557 2.65751 12.1332 3.33496 12.9933 3.33496Z" fill="white" fill-opacity="0.85"/>
</g>
</g>
<defs>
<clipPath id="clip0_30_185">
<rect width="14.356" height="3.05237" fill="white" transform="translate(0.159698 0.28273)"/>
</clipPath>
</defs>
</svg>
